<svg width="40" height="40" viewBox="0 0 40 40" fill="none" xmlns="http://www.w3.org/2000/svg">
<rect width="40" height="40" rx="20" fill="#DFEDEA"/>
<path d="M28.66 28L21.87 11.81C21.5 10.97 20.93 10.29 20.16 9.77C19.4 9.26 18.55 9 17.61 9C16.77 9 16 9.21 15.3 9.63C14.6 10.05 14.04 10.62 13.63 11.32C13.22 12.02 13 12.8 13 13.64L13.03 17L11.23 17C10.5673 17 10.03 17.5373 10.03 18.2L10.03 22.45C10.65 22.17 11.31 22.03 12 22.03L12 19.03L17 19.03C17.57 19.03 18.04 19.23 18.43 19.62C18.82 20 19 20.47 19 21L19 28.03L16.91 28.03C16.76 28.75 16.44 29.41 15.97 30L19.8 30C20.4627 30 21 29.4627 21 28.8L21 21C21 20.28 20.8 19.62 20.45 19C20.1 18.38 19.61 17.91 19 17.56C18.42 17.2 17.75 17 17 17L15 17L15 13.64C15 12.92 15.25 12.31 15.76 11.79C16.27 11.27 16.89 11 17.61 11C18.14 11 18.63 11.16 19.06 11.46C19.49 11.76 19.81 12.14 20 12.61L26.46 28L24.9789 28.0181C24.4364 28.0247 24 28.4664 24 29.009V29.009C24 29.5563 24.4437 30 24.991 30L30.0087 30C30.5562 30 31 29.5562 31 29.0087V29.0087C31 28.4662 30.5639 28.0244 30.0214 28.0175L28.66 28ZM12 26C12.55 26 13 26.45 13 27C13 27.55 12.55 28 12 28C11.45 28 11 27.55 11 27C11 26.45 11.45 26 12 26ZM12 24C10.34 24 9 25.34 9 27C9 28.66 10.34 30 12 30C13.66 30 15 28.66 15 27C15 25.34 13.66 24 12 24Z" fill="#006A61"/>
</svg>
