<svg width="213" height="40" viewBox="0 0 213 40" fill="none" xmlns="http://www.w3.org/2000/svg">
<g clip-path="url(#clip0_3872_2523)">
<path d="M94.3431 7.5498C91.5098 7.5498 88.9886 8.84241 87.3549 10.9033C85.9393 8.79746 83.602 7.5498 80.8264 7.5498C78.2048 7.5498 75.8183 8.75252 74.1739 10.67L73.8916 10.0515C73.3827 8.93657 72.2729 8.22179 71.0476 8.22179H67.5449V30.9985H75.3842V18.5112C75.3842 15.6799 76.5497 14.1583 78.6731 14.1583C80.3153 14.1583 81.1835 15.3782 81.1835 17.6852V31.0007H88.8176V18.5134C88.8176 15.6457 89.921 14.1605 92.0765 14.1605C93.7423 14.1605 94.6169 15.3076 94.6169 17.6873V31.0028H102.454V16.7157C102.454 11.3506 99.2144 7.5498 94.3389 7.5498" fill="#CCE8E3"/>
<path d="M104.952 19.6117C104.952 12.5516 110.292 7.47754 117.712 7.47754C125.132 7.47754 130.472 12.5516 130.472 19.6117C130.472 26.6718 125.109 31.7459 117.712 31.7459C110.315 31.7459 104.952 26.6483 104.952 19.6117ZM117.712 24.6987C120.569 24.6987 122.619 22.6228 122.619 19.6117C122.619 16.6006 120.569 14.5248 117.712 14.5248C114.855 14.5248 112.804 16.6006 112.804 19.6117C112.804 22.6228 114.855 24.6987 117.712 24.6987Z" fill="#CCE8E3"/>
<path d="M157.284 0V31.001H151.483L150.743 29.3104C148.891 30.8705 146.53 31.7714 143.879 31.7714C136.897 31.7714 131.921 26.6909 131.921 19.6137C131.921 12.5365 136.895 7.47954 143.879 7.47954C145.981 7.47954 147.903 8.04665 149.535 9.06105V0H157.284ZM150.022 19.6116C150.022 16.6369 147.865 14.3984 144.929 14.3984C141.993 14.3984 139.835 16.6369 139.835 19.6116C139.835 22.5863 141.993 24.8226 144.929 24.8226C147.865 24.8226 150.022 22.5841 150.022 19.6116" fill="#CCE8E3"/>
<path d="M185.582 8.20045V30.9772H179.522L178.85 29.3657C176.988 30.8766 174.627 31.7476 171.984 31.7476C165.026 31.7476 160.052 26.6671 160.052 19.5899C160.052 12.5127 165.026 7.51562 171.984 7.51562C174.665 7.51562 177.058 8.41231 178.938 9.96386L179.74 8.20259H185.582V8.20045ZM178.125 19.607C178.125 16.6516 175.968 14.4302 173.032 14.4302C170.096 14.4302 167.938 16.6516 167.938 19.607C167.938 22.5624 170.096 24.801 173.032 24.801C175.968 24.801 178.125 22.5796 178.125 19.607Z" fill="#CCE8E3"/>
<path d="M203.557 31.001L197.858 21.3686V31.001H190.019V0H197.858V17.1462L203.279 8.22428H212.08L204.987 19.0787L212.797 31.001H203.557Z" fill="#CCE8E3"/>
<path d="M209.38 3.71094H207.541C207.505 3.71094 207.475 3.7409 207.475 3.77728V4.05121C207.475 4.08759 207.505 4.11755 207.541 4.11755H208.24V6.09925C208.24 6.13563 208.27 6.16559 208.306 6.16559H208.612C208.649 6.16559 208.679 6.13563 208.679 6.09925V4.11755H209.38C209.416 4.11755 209.446 4.08759 209.446 4.05121V3.77728C209.446 3.7409 209.416 3.71094 209.38 3.71094" fill="#CCE8E3"/>
<path d="M212.046 3.71094H211.633C211.606 3.71094 211.58 3.72806 211.571 3.75588L211.015 5.37163C210.992 5.43797 210.973 5.49575 210.956 5.54926C210.941 5.50431 210.926 5.45509 210.906 5.40159L210.357 3.75802C210.348 3.7302 210.323 3.71308 210.295 3.71308H209.833C209.797 3.71308 209.767 3.74304 209.767 3.77942V6.09925C209.767 6.13563 209.797 6.16559 209.833 6.16559H210.128C210.164 6.16559 210.194 6.13563 210.194 6.09925V4.52202L210.737 6.11851C210.746 6.14419 210.772 6.16345 210.799 6.16345H211.075C211.103 6.16345 211.129 6.14633 211.137 6.12065L211.683 4.5477V6.09925C211.683 6.13563 211.713 6.16559 211.749 6.16559H212.044C212.08 6.16559 212.11 6.13563 212.11 6.09925V3.77942C212.11 3.74304 212.08 3.71308 212.044 3.71308" fill="#CCE8E3"/>
<path d="M26.071 39.9999C22.9682 39.9999 20.0471 38.5789 18.1311 36.1692C15.8495 38.427 13.0354 39.6126 10.078 39.4713C5.52323 39.2616 2.64069 35.4566 2.32635 35.0243C2.31352 35.0093 2.30283 34.9922 2.29213 34.9751C-0.331662 31.2 -0.0857478 27.6838 0.113122 24.8611C0.205072 23.545 1.3876 18.2568 3.76334 12.9794C7.08853 5.59621 11.284 1.37386 16.2344 0.425809C20.6608 -0.421658 24.2298 1.92814 26.071 3.3042C27.9121 1.92814 31.4832 -0.421658 35.9075 0.425809C40.8579 1.37386 45.0534 5.59835 48.3764 12.9816C50.7522 18.259 51.9347 23.5471 52.0267 24.8611C52.2255 27.686 52.4714 31.2 49.8498 34.9772C49.8391 34.9943 49.8284 35.0093 49.8156 35.0264C49.5012 35.4587 46.6187 39.2616 42.0639 39.4735C39.113 39.6126 36.2988 38.4334 34.0108 36.1692C32.0948 38.5811 29.1737 40.0021 26.071 40.0021M20.9688 30.2284L22.4549 32.3663C23.2889 33.5669 24.6083 34.256 26.071 34.256C27.5336 34.256 28.853 33.5669 29.687 32.3663L31.1731 30.2284C31.7933 29.3189 32.8304 28.7903 33.9188 28.7924C35.0372 28.8031 36.0615 29.3724 36.6645 30.3161C37.3402 31.4011 39.16 33.8537 41.8009 33.7338C43.317 33.6632 44.7241 32.2358 45.1667 31.6579C46.5331 29.6655 46.4904 27.93 46.3043 25.2784C46.0349 22.6825 41.8586 7.41313 34.8298 6.06917C32.4904 5.61975 30.2579 7.32967 29.0604 8.24775C28.7119 8.51526 28.436 8.72499 28.1473 8.90261C27.5186 9.28783 26.9156 9.49969 26.2998 9.54891C26.1479 9.56176 25.9961 9.56176 25.8421 9.54891C25.2263 9.49969 24.6211 9.28783 23.9946 8.90261C23.7059 8.72713 23.4322 8.51526 23.0815 8.24989C21.884 7.33181 19.6537 5.62403 17.3121 6.07131C10.279 7.41741 6.09846 22.7146 5.83757 25.2891C5.65153 27.93 5.60877 29.6698 6.98161 31.6686C7.40073 32.2208 8.81634 33.6653 10.3431 33.736C12.9841 33.8579 14.8038 31.4033 15.4624 30.3439C16.0783 29.3745 17.1047 28.8052 18.2231 28.7945C19.3201 28.7945 20.3486 29.321 20.9688 30.2305" fill="#CCE8E3"/>
</g>
<defs>
<clipPath id="clip0_3872_2523">
<rect width="212.797" height="40" fill="white"/>
</clipPath>
</defs>
</svg>
